<svg xmlns="http://www.w3.org/2000/svg" viewBox="0 0 32 32" fill="currentColor" id="basket"><path d="M29 11h-3.45l-4.7-7.53a1 1 0 0 0-1.7 1.06L23.2 11H8.8l4-6.47a1 1 0 1 0-1.7-1.06L6.45 11H3a1 1 0 0 0-1 1v4a1 1 0 0 0 1 1h1l2.4 11.21a1 1 0 0 0 1 .79h17.17a1 1 0 0 0 1-.79L28 17h1a1 1 0 0 0 1-1v-4a1 1 0 0 0-1-1ZM4 13h24v2H4Zm19.76 14H8.24L6.09 17h19.82ZM11 25.16l-1-6a1 1 0 1 1 2-.32l1 6a1 1 0 0 1-.84 1.16H12a1 1 0 0 1-1-.84Zm8-.32 1-6a1 1 0 1 1 2 .32l-1 6a1 1 0 0 1-1 .84h-.16a1 1 0 0 1-.84-1.16Z" data-name="15-basket"></path></svg>